<?xml version="1.0" standalone="no"?>
<!DOCTYPE svg PUBLIC "-//W3C//DTD SVG 20010904//EN"
 "http://www.w3.org/TR/2001/REC-SVG-20010904/DTD/svg10.dtd">
<svg version="1.0" xmlns="http://www.w3.org/2000/svg"
 width="152.000000pt" height="152.000000pt" viewBox="0 0 152.000000 152.000000"
 preserveAspectRatio="xMidYMid meet">

<g transform="translate(0.000000,152.000000) scale(0.100000,-0.100000)"
fill="white" stroke="none">
<path d="M0 760 l0 -760 760 0 760 0 0 760 0 760 -760 0 -760 0 0 -760z m285
543 c10 -56 39 -105 84 -146 23 -20 45 -37 49 -37 5 0 19 11 32 24 71 76 256
72 300 -6 13 -25 13 -29 -6 -55 -38 -51 -145 -63 -246 -27 l-37 13 -6 -32 c-4
-18 -2 -43 3 -57 9 -24 13 -25 78 -22 59 3 72 1 88 -16 24 -27 14 -56 -24 -72
-35 -14 -84 -9 -135 16 l-36 17 -56 -44 c-108 -85 -163 -196 -163 -332 0 -132
30 -217 99 -286 91 -91 293 -136 404 -91 15 6 5 7 -33 4 -112 -12 -238 31
-316 107 -148 144 -100 345 106 443 59 28 74 31 160 31 83 0 103 -4 157 -29
40 -18 80 -47 112 -81 88 -93 101 -207 37 -321 -22 -40 -23 -43 -5 -34 10 6
37 34 59 61 88 112 106 292 42 422 l-33 66 -109 -2 c-107 -2 -110 -1 -137 25
-23 24 -25 30 -15 52 11 25 61 46 113 46 43 0 124 -28 165 -58 29 -21 56 -30
104 -35 87 -9 178 -54 214 -106 29 -41 56 -118 56 -158 0 -39 -18 -26 -25 19
-16 98 -64 162 -144 196 -48 20 -145 37 -139 24 51 -99 53 -106 53 -217 0
-105 -2 -114 -34 -179 -46 -94 -123 -168 -242 -233 -134 -72 -191 -87 -310
-80 -198 12 -339 98 -410 252 -91 194 -7 405 210 527 31 17 57 32 59 33 1 1
-5 19 -14 41 -14 33 -15 46 -5 86 l12 46 -47 44 c-50 46 -94 125 -94 171 0 40
17 33 25 -10z"   style="fill:white;"/>
<path d="M555 1166 c-16 -8 -43 -27 -59 -44 l-29 -31 29 -12 c16 -6 59 -14 96
-16 61 -5 68 -4 92 20 32 32 32 42 1 72 -28 29 -81 33 -130 11z"/>
<path d="M508 933 c-26 -7 -22 -21 12 -38 31 -16 62 -13 88 8 32 25 -38 47
-100 30z"   style="fill:white"/>
<path d="M757 886 c-7 -18 19 -41 56 -50 34 -8 147 3 147 14 0 5 -19 18 -43
29 -52 25 -152 29 -160 7z"/>
<path d="M565 711 c-90 -25 -143 -68 -175 -143 -60 -139 1 -302 135 -364 79
-37 251 -29 298 14 50 45 95 194 81 270 -17 89 -77 171 -151 204 -48 21 -144
31 -188 19z"  style="fill:white"/>
</g>
</svg>
