<?xml version="1.0" encoding="UTF-8" standalone="no"?>
<!-- Created with Inkscape (http://www.inkscape.org/) -->

<svg
   version="1.1"
   id="svg2"
   width="299.74667"
   height="145.06667"
   viewBox="0 0 299.74667 145.06667"
   sodipodi:docname="BHB-Logo_black_CMYK.eps"
   xmlns:inkscape="http://www.inkscape.org/namespaces/inkscape"
   xmlns:sodipodi="http://sodipodi.sourceforge.net/DTD/sodipodi-0.dtd"
   xmlns="http://www.w3.org/2000/svg"
   xmlns:svg="http://www.w3.org/2000/svg">
  <defs
     id="defs6" />
  <sodipodi:namedview
     id="namedview4"
     pagecolor="#ffffff"
     bordercolor="#000000"
     borderopacity="0.25"
     inkscape:showpageshadow="2"
     inkscape:pageopacity="0.0"
     inkscape:pagecheckerboard="0"
     inkscape:deskcolor="#d1d1d1" />
  <g
     id="g8"
     inkscape:groupmode="layer"
     inkscape:label="ink_ext_XXXXXX"
     transform="matrix(1.3333333,0,0,-1.3333333,0,145.06667)">
    <g
       id="g10"
       transform="scale(0.1)">
      <path
         d="M 55.1758,266.063 H 28.3945 v -70.879 h 26.7813 c 13.8476,0 24.1992,3.086 31.0469,9.234 6.8476,6.16 10.2773,14.859 10.2773,26.094 0,10.922 -3.4648,19.586 -10.3945,25.968 -6.9219,6.391 -17.2383,9.583 -30.9297,9.583 z m -0.461,75.5 H 28.3945 v -67.887 h 26.3203 c 12.6172,0 22.1602,3.039 28.625,9.129 6.4649,6.078 9.6954,14.578 9.6954,25.511 0,10.457 -3.1954,18.622 -9.5821,24.465 -6.3867,5.848 -15.9648,8.782 -28.7383,8.782 z M 0,187.57 v 161.606 h 56.0938 c 21.5468,0 38.0195,-3.156 49.4062,-9.469 11.387,-6.309 17.086,-16.625 17.086,-30.934 0,-10.773 -4.039,-19.503 -12.121,-26.199 -8.078,-6.695 -18.508,-10.738 -31.2814,-12.125 v -0.465 c 14.3125,-0.918 25.7384,-4.843 34.2854,-11.769 8.543,-6.93 12.808,-16.246 12.808,-27.934 0,-15.242 -6.043,-26.164 -18.121,-32.777 C 96.0742,190.879 78.9531,187.57 56.7891,187.57 H 0"
         style="fill:#0f4533;fill-opacity:1;fill-rule:nonzero;stroke:none"
         id="path12" />
      <path
         d="m 300.117,195.184 v -7.614 h -112.89 v 161.606 h 111.277 v -7.613 h -82.883 v -66.954 h 76.649 v -7.629 h -76.649 v -71.796 h 84.496"
         style="fill:#0f4533;fill-opacity:1;fill-rule:nonzero;stroke:none"
         id="path14" />
      <path
         d="m 422.711,185.266 c -11.086,0 -21.438,1.957 -31.055,5.879 -9.621,3.925 -17.968,9.5 -25.047,16.746 -7.082,7.23 -12.664,16.078 -16.738,26.547 -4.082,10.468 -6.117,22.156 -6.117,35.093 0,12.926 2.109,24.547 6.348,34.852 4.226,10.316 9.964,19.047 17.199,26.211 7.23,7.148 15.621,12.609 25.164,16.394 9.543,3.758 19.625,5.645 30.246,5.645 9.23,0 17.891,-1.188 25.969,-3.574 8.082,-2.387 15.121,-5.809 21.125,-10.27 6,-4.473 10.968,-9.934 14.89,-16.394 3.926,-6.461 6.422,-13.704 7.504,-21.704 h -26.086 c -1.543,14.473 -6.043,25.547 -13.508,33.243 -7.468,7.699 -17.429,11.55 -29.894,11.55 -16.012,0 -27.938,-6.625 -35.789,-19.851 -7.848,-13.238 -11.774,-31.942 -11.774,-56.102 0,-24.476 3.883,-43.441 11.665,-56.914 7.765,-13.472 19.734,-20.203 35.898,-20.203 12.312,0 22.238,3.969 29.777,11.887 7.539,7.929 12.157,18.898 13.852,32.906 h 26.086 c -2.305,-16.008 -9.774,-28.668 -22.391,-37.98 -12.621,-9.317 -28.398,-13.961 -47.324,-13.961"
         style="fill:#0f4533;fill-opacity:1;fill-rule:nonzero;stroke:none"
         id="path16" />
      <path
         d="m 654.719,187.57 -49.871,85.887 -25.856,-25.398 V 187.57 h -28.39 v 161.606 h 28.39 v -89.344 l 90.496,89.344 h 12.473 L 625.629,293.762 687.5,187.57 h -32.781"
         style="fill:#0f4533;fill-opacity:1;fill-rule:nonzero;stroke:none"
         id="path18" />
      <path
         d="M 851.867,195.184 V 187.57 H 738.98 v 161.606 h 111.278 v -7.613 h -82.883 v -66.954 h 76.645 v -7.629 h -76.645 v -71.796 h 84.492"
         style="fill:#0f4533;fill-opacity:1;fill-rule:nonzero;stroke:none"
         id="path20" />
      <path
         d="m 937.289,341.563 v -71.114 h 22.164 c 14.16,0 24.469,3.309 30.934,9.922 6.465,6.625 9.693,15.242 9.693,25.863 0,10.618 -3.267,19.164 -9.807,25.625 -6.543,6.465 -16.738,9.704 -30.593,9.704 z M 959.68,262.836 H 937.289 V 187.57 h -28.394 v 161.606 h 51.019 c 22.934,0 40.326,-3.574 52.176,-10.735 11.85,-7.164 17.77,-17.816 17.77,-31.976 0,-5.856 -1.19,-11.051 -3.57,-15.578 -2.39,-4.543 -5.7,-8.477 -9.93,-11.785 -4.24,-3.305 -9.27,-5.961 -15.12,-7.965 -5.853,-2 -12.158,-3.305 -18.931,-3.922 v -0.453 c 10.773,-1.086 19.891,-4.239 27.361,-9.469 7.46,-5.238 12.65,-13.855 15.58,-25.859 l 10.39,-43.864 h -29.32 l -10.625,46.403 c -2.765,11.851 -7.039,19.629 -12.808,23.32 -5.778,3.691 -13.508,5.543 -23.207,5.543"
         style="fill:#0f4533;fill-opacity:1;fill-rule:nonzero;stroke:none"
         id="path22" />
      <path
         d="m 1094.05,187.57 v 161.606 h 28.39 V 274.84 h 80.8 v 74.336 h 28.4 V 187.57 h -28.4 v 79.645 h -80.8 V 187.57 h -28.39"
         style="fill:#0f4533;fill-opacity:1;fill-rule:nonzero;stroke:none"
         id="path24" />
      <path
         d="M 1310.59,245.523 H 1375 l -33.02,84.954 z m 86.8,-57.953 -19.4,50.325 h -70.17 l -18.7,-50.325 h -9.47 l 60.49,161.606 h 24.46 l 63.26,-161.606 h -30.47"
         style="fill:#0f4533;fill-opacity:1;fill-rule:nonzero;stroke:none"
         id="path26" />
      <path
         d="m 1544.68,187.57 -59.56,151.219 V 187.57 h -9 v 161.606 h 35.08 l 50.1,-128.129 50.56,128.129 h 33.01 V 187.57 h -28.16 V 338.324 L 1557.15,187.57 h -12.47"
         style="fill:#0f4533;fill-opacity:1;fill-rule:nonzero;stroke:none"
         id="path28" />
      <path
         d="m 1781.77,187.57 -59.56,151.219 V 187.57 h -9 v 161.606 h 35.08 l 50.11,-128.129 50.56,128.129 h 33.01 V 187.57 H 1853.8 V 338.324 L 1794.24,187.57 h -12.47"
         style="fill:#0f4533;fill-opacity:1;fill-rule:nonzero;stroke:none"
         id="path30" />
      <path
         d="m 2064.36,195.184 v -7.614 h -112.89 v 161.606 h 111.27 v -7.613 h -82.88 v -66.954 h 76.65 v -7.629 h -76.65 v -71.796 h 84.5"
         style="fill:#0f4533;fill-opacity:1;fill-rule:nonzero;stroke:none"
         id="path32" />
      <path
         d="m 2149.76,341.563 v -71.114 h 22.17 c 14.16,0 24.48,3.309 30.94,9.922 6.46,6.625 9.69,15.242 9.69,25.863 0,10.618 -3.27,19.164 -9.8,25.625 -6.55,6.465 -16.75,9.704 -30.59,9.704 z m 22.41,-78.727 h -22.41 V 187.57 h -28.38 v 161.606 h 51.02 c 22.93,0 40.31,-3.574 52.16,-10.735 11.86,-7.164 17.78,-17.816 17.78,-31.976 0,-5.856 -1.18,-11.051 -3.57,-15.578 -2.39,-4.543 -5.69,-8.477 -9.93,-11.785 -4.23,-3.305 -9.27,-5.961 -15.12,-7.965 -5.85,-2 -12.16,-3.305 -18.93,-3.922 v -0.453 c 10.77,-1.086 19.89,-4.239 27.35,-9.469 7.47,-5.238 12.66,-13.855 15.59,-25.859 l 10.39,-43.864 h -29.32 l -10.62,46.403 c -2.77,11.851 -7.04,19.629 -12.82,23.32 -5.76,3.691 -13.51,5.543 -23.19,5.543"
         style="fill:#0f4533;fill-opacity:1;fill-rule:nonzero;stroke:none"
         id="path34" />
      <path
         d="m 514.754,42.5 c 8.262,0 12.879,5.8984 12.879,13.4219 0,7.7383 -4.617,12.8789 -12.879,12.8789 h -17.5 V 42.5 Z m 1.824,-34.23047 c 7.836,0 13.524,5.90237 13.524,13.62107 0,7.6289 -6.977,13.1992 -15.348,13.1992 H 497.043 V 8.26953 Z M 489.207,74.1719 c 0,1.0664 0.856,2.039 2.039,2.039 h 23.508 c 13.094,0 22,-8.4804 22,-19.75 0,-8.2695 -5.473,-14.2812 -10.512,-17.1796 5.688,-2.3594 12.875,-7.6211 12.875,-17.5 0,-12.01177 -9.551,-20.71099 -23.394,-20.71099 h -24.477 c -1.183,0 -2.039,0.96875 -2.039,2.03907 V 74.1719"
         style="fill:#0F4533;fill-opacity:1;fill-rule:nonzero;stroke:none"
         id="path36" />
      <path
         d="m 618.414,26.6211 c -5.258,11.6992 -10.41,23.5078 -15.668,35.207 h -0.859 L 586.215,26.6211 Z M 567.43,3.85938 600.063,76.1016 c 0.32,0.6367 0.855,1.1797 1.824,1.1797 h 1.07 c 0.965,0 1.508,-0.543 1.828,-1.1797 L 637.203,3.85938 c 0.645,-1.39063 -0.219,-2.78907 -1.824,-2.78907 h -4.297 c -0.965,0 -1.605,0.64063 -1.82,1.17969 l -7.949,17.7188 H 583.211 L 575.371,2.25 c -0.215,-0.53906 -0.855,-1.17969 -1.82,-1.17969 h -4.297 c -1.606,0 -2.469,1.39844 -1.824,2.78907"
         style="fill:#0F4533;fill-opacity:1;fill-rule:nonzero;stroke:none"
         id="path38" />
      <path
         d="m 668.629,74.1719 c 0,1.0664 0.965,2.039 2.035,2.039 h 4.082 c 1.18,0 2.039,-0.9726 2.039,-2.039 V 29.4102 c 0,-12.2383 7.621,-21.80082 20.18,-21.80082 12.668,0 20.394,9.33982 20.394,21.58202 v 44.9805 c 0,1.0664 0.86,2.039 2.043,2.039 h 4.075 c 1.078,0 2.043,-0.9726 2.043,-2.039 V 28.7617 C 725.52,12.4492 713.922,0 696.965,0 680.113,0 668.629,12.4492 668.629,28.7617 v 45.4102"
         style="fill:#0F4533;fill-opacity:1;fill-rule:nonzero;stroke:none"
         id="path40" />
      <path
         d="m 801.16,77.2813 c 10.84,0 18.676,-3.75 25.977,-9.9805 0.863,-0.8594 0.968,-2.1406 0.109,-3 -0.965,-0.9727 -2.144,-2.0391 -3.008,-3.0117 -0.965,-1.0703 -1.605,-0.961 -2.789,0.1093 -5.472,4.8321 -13.203,8.3711 -20.394,8.3711 -16.957,0 -29.844,-14.1679 -29.844,-30.8086 0,-16.5195 12.887,-31.01949 29.844,-31.01949 11.808,0 19.324,4.50779 19.324,4.50779 v 15.0313 h -12.348 c -1.183,0 -2.039,0.8593 -2.039,1.9297 v 3.9687 c 0,1.1797 0.856,2.043 2.039,2.043 h 18.571 c 1.07,0 1.933,-0.9727 1.933,-2.043 V 8.80078 c 0,-0.53125 -0.43,-1.40234 -0.863,-1.72265 0,0 -10.945,-7.07813 -26.512,-7.07813 -21.465,0 -38.75,17.0703 -38.75,38.5313 0,21.4687 17.285,38.75 38.75,38.75"
         style="fill:#0F4533;fill-opacity:1;fill-rule:nonzero;stroke:none"
         id="path42" />
      <path
         d="m 867.902,74.1719 c 0,1.0664 0.856,2.039 2.039,2.039 h 42.289 c 1.184,0 2.043,-0.9726 2.043,-2.039 v -3.1133 c 0,-1.0781 -0.859,-2.0469 -2.043,-2.0469 H 876.164 V 42.8203 h 30.809 c 1.074,0 2.039,-0.9609 2.039,-2.0312 v -3.1094 c 0,-1.1914 -0.965,-2.0508 -2.039,-2.0508 H 876.164 V 8.26953 h 36.066 c 1.184,0 2.043,-0.96875 2.043,-2.03906 V 3.10938 c 0,-1.07032 -0.859,-2.03907 -2.043,-2.03907 h -42.289 c -1.183,0 -2.039,0.96875 -2.039,2.03907 V 74.1719"
         style="fill:#0F4533;fill-opacity:1;fill-rule:nonzero;stroke:none"
         id="path44" />
      <path
         d="m 948.059,12.3398 c 0.535,0.6407 1.074,1.3985 1.613,2.0391 1.07,1.4024 2.254,2.2617 3.754,0.9609 0.754,-0.6406 8.59,-8.16011 18.144,-8.16011 8.692,0 14.379,5.49221 14.379,11.82031 0,7.4102 -6.437,11.8086 -18.781,16.9492 -11.809,5.1602 -18.895,9.9805 -18.895,22.2227 0,7.2969 5.793,19.1094 22.864,19.1094 10.519,0 18.355,-5.4727 18.355,-5.4727 0.645,-0.3281 1.934,-1.6094 0.645,-3.6484 -0.426,-0.6485 -0.86,-1.3985 -1.289,-2.0391 -0.965,-1.5117 -2.039,-1.9297 -3.754,-0.9609 -0.75,0.4179 -7.516,4.9296 -14.063,4.9296 -11.379,0 -14.816,-7.3007 -14.816,-11.8007 0,-7.1993 5.473,-11.3907 14.492,-15.1407 C 985.199,37.25 994.535,31.7695 994.535,19.3203 994.535,8.14844 983.91,0 971.352,0 c -12.668,0 -21.254,7.39844 -22.645,8.69922 -0.863,0.74219 -1.934,1.60158 -0.648,3.64058"
         style="fill:#0F4533;fill-opacity:1;fill-rule:nonzero;stroke:none"
         id="path46" />
      <path
         d="m 1031.55,74.1719 c 0,1.0664 0.85,2.039 2.03,2.039 h 42.29 c 1.19,0 2.05,-0.9726 2.05,-2.039 v -3.1133 c 0,-1.0781 -0.86,-2.0469 -2.05,-2.0469 h -36.06 V 42.8203 h 30.81 c 1.07,0 2.04,-0.9609 2.04,-2.0312 v -3.1094 c 0,-1.1914 -0.97,-2.0508 -2.04,-2.0508 h -30.81 V 8.26953 h 36.06 c 1.19,0 2.05,-0.96875 2.05,-2.03906 V 3.10938 c 0,-1.07032 -0.86,-2.03907 -2.05,-2.03907 h -42.29 c -1.18,0 -2.03,0.96875 -2.03,2.03907 V 74.1719"
         style="fill:#0F4533;fill-opacity:1;fill-rule:nonzero;stroke:none"
         id="path48" />
      <path
         d="m 1116.54,74.1719 c 0,1.0664 0.86,2.039 2.04,2.039 h 4.18 c 1.08,0 2.04,-0.9726 2.04,-2.039 V 8.26953 h 30.92 c 1.18,0 2.04,-0.96875 2.04,-2.03906 V 3.10938 c 0,-1.07032 -0.86,-2.03907 -2.04,-2.03907 h -37.14 c -1.18,0 -2.04,0.96875 -2.04,2.03907 V 74.1719"
         style="fill:#0F4533;fill-opacity:1;fill-rule:nonzero;stroke:none"
         id="path50" />
      <path
         d="m 1190.69,74.1719 c 0,1.0664 0.86,2.039 2.04,2.039 h 4.19 c 1.07,0 2.04,-0.9726 2.04,-2.039 V 8.26953 h 30.91 c 1.19,0 2.04,-0.96875 2.04,-2.03906 V 3.10938 c 0,-1.07032 -0.85,-2.03907 -2.04,-2.03907 h -37.14 c -1.18,0 -2.04,0.96875 -2.04,2.03907 V 74.1719"
         style="fill:#0F4533;fill-opacity:1;fill-rule:nonzero;stroke:none"
         id="path52" />
      <path
         d="m 1260.01,12.3398 c 0.54,0.6407 1.08,1.3985 1.61,2.0391 1.08,1.4024 2.25,2.2617 3.75,0.9609 0.76,-0.6406 8.6,-8.16011 18.14,-8.16011 8.7,0 14.4,5.49221 14.4,11.82031 0,7.4102 -6.44,11.8086 -18.8,16.9492 -11.8,5.1602 -18.88,9.9805 -18.88,22.2227 0,7.2969 5.8,19.1094 22.87,19.1094 10.51,0 18.35,-5.4727 18.35,-5.4727 0.64,-0.3281 1.93,-1.6094 0.64,-3.6484 -0.43,-0.6485 -0.86,-1.3985 -1.28,-2.0391 -0.97,-1.5117 -2.05,-1.9297 -3.76,-0.9609 -0.76,0.4179 -7.52,4.9296 -14.07,4.9296 -11.38,0 -14.81,-7.3007 -14.81,-11.8007 0,-7.1993 5.47,-11.3907 14.49,-15.1407 14.49,-5.8984 23.83,-11.3789 23.83,-23.8281 C 1306.49,8.14844 1295.87,0 1283.31,0 c -12.67,0 -21.25,7.39844 -22.65,8.69922 -0.86,0.74219 -1.94,1.60158 -0.65,3.64058"
         style="fill:#0F4533;fill-opacity:1;fill-rule:nonzero;stroke:none"
         id="path54" />
      <path
         d="m 1376.77,77.2813 c 10.84,0 18.68,-3.75 25.98,-9.9805 0.86,-0.8594 0.97,-2.1406 0.1,-3 l -2.9,-2.9024 c -0.85,-1.0703 -1.71,-0.9687 -2.78,0.1016 -5.59,4.8281 -13.2,8.0586 -20.5,8.0586 -16.97,0 -29.95,-14.2891 -29.95,-30.918 0,-16.5312 12.98,-30.81247 29.95,-30.81247 9.33,0 14.81,3.74997 20.5,8.05077 1.07,0.8594 1.93,0.7617 2.57,0.332 l 3.22,-2.9023 c 0.86,-0.6367 0.65,-2.1484 -0.11,-2.8984 C 1395.55,3.32813 1386.33,0 1376.77,0 c -21.47,0 -38.75,17.0703 -38.75,38.5313 0,21.4687 17.28,38.75 38.75,38.75"
         style="fill:#0F4533;fill-opacity:1;fill-rule:nonzero;stroke:none"
         id="path56" />
      <path
         d="m 1440.82,74.1719 c 0,1.0664 0.97,2.039 2.04,2.039 h 4.19 c 1.18,0 2.04,-0.9726 2.04,-2.039 V 42.8203 h 43.58 v 31.3516 c 0,1.0664 0.87,2.039 2.04,2.039 h 4.19 c 1.08,0 2.04,-0.9726 2.04,-2.039 V 3.10938 c 0,-1.07032 -0.96,-2.03907 -2.04,-2.03907 h -4.19 c -1.17,0 -2.04,0.96875 -2.04,2.03907 V 35.6289 h -43.58 V 3.10938 c 0,-1.07032 -0.86,-2.03907 -2.04,-2.03907 h -4.19 c -1.07,0 -2.04,0.96875 -2.04,2.03907 V 74.1719"
         style="fill:#0F4533;fill-opacity:1;fill-rule:nonzero;stroke:none"
         id="path58" />
      <path
         d="m 1584.95,26.6211 c -5.26,11.6992 -10.41,23.5078 -15.67,35.207 h -0.85 l -15.67,-35.207 z M 1533.96,3.85938 1566.6,76.1016 c 0.32,0.6367 0.86,1.1797 1.83,1.1797 h 1.07 c 0.97,0 1.5,-0.543 1.82,-1.1797 l 32.43,-72.24222 c 0.64,-1.39063 -0.23,-2.78907 -1.83,-2.78907 h -4.3 c -0.97,0 -1.61,0.64063 -1.83,1.17969 l -7.94,17.7188 h -38.11 L 1541.92,2.25 c -0.22,-0.53906 -0.87,-1.17969 -1.83,-1.17969 h -4.3 c -1.6,0 -2.47,1.39844 -1.83,2.78907"
         style="fill:#0F4533;fill-opacity:1;fill-rule:nonzero;stroke:none"
         id="path60" />
      <path
         d="m 1636.88,74.1719 c 0,1.0664 0.87,2.039 2.04,2.039 h 42.3 c 1.18,0 2.04,-0.9726 2.04,-2.039 v -3.1133 c 0,-1.0781 -0.86,-2.0469 -2.04,-2.0469 h -36.07 V 39.6094 h 30.81 c 1.07,0 2.04,-0.9688 2.04,-2.0508 v -3.1094 c 0,-1.0703 -0.97,-2.039 -2.04,-2.039 h -30.81 V 3.10938 c 0,-1.07032 -0.96,-2.03907 -2.04,-2.03907 h -4.19 c -1.17,0 -2.04,0.96875 -2.04,2.03907 V 74.1719"
         style="fill:#0F4533;fill-opacity:1;fill-rule:nonzero;stroke:none"
         id="path62" />
      <path
         d="m 1730.04,69.0117 h -18.68 c -1.19,0 -2.04,0.9688 -2.04,2.0469 v 3.1133 c 0,1.0664 0.85,2.039 2.04,2.039 h 45.52 c 1.17,0 2.03,-0.9726 2.03,-2.039 v -3.1133 c 0,-1.0781 -0.86,-2.0469 -2.03,-2.0469 H 1738.2 V 3.10938 c 0,-1.07032 -0.97,-2.03907 -2.05,-2.03907 h -4.08 c -1.07,0 -2.03,0.96875 -2.03,2.03907 V 69.0117"
         style="fill:#0F4533;fill-opacity:1;fill-rule:nonzero;stroke:none"
         id="path64" />
      <path
         d="m 1067.83,1031.71 5.85,-5.83 50.41,50.41 50.39,-50.41 5.83,5.83 -56.22,56.26 -56.26,-56.26"
         style="fill:#0f4533;fill-opacity:1;fill-rule:nonzero;stroke:none"
         id="path66" />
      <path
         d="m 1164.48,713.18 h -113.2 V 963.945 H 795.168 v -162.55 h 168.016 v 8.25 H 850.77 V 955.684 H 995.563 V 555.445 H 850.77 v 219.211 l -55.602,-55.75 V 547.191 H 1051.28 V 704.93 h 113.2 v 8.25"
         style="fill:#0f4533;fill-opacity:1;fill-rule:nonzero;stroke:none"
         id="path68" />
      <path
         d="M 1452.95,963.945 H 1196.86 V 547.191 h 256.09 v 171.727 l -55.59,56.137 v -219.61 h -144.8 v 400.239 h 144.8 V 809.645 h -112.43 v -8.25 h 168.02 v 162.55"
         style="fill:#0f4533;fill-opacity:1;fill-rule:nonzero;stroke:none"
         id="path70" />
    </g>
  </g>
</svg>
